0
SECTION
2
HEADER
9
$INSUNITS
70
4
0
ENDSEC
0
SECTION
2
TABLES
0
TABLE
2
LTYPE
0
LTYPE
72
65
70
64
2
CONTINUOUS
3
______
73
0
40
0
0
ENDTAB
0
TABLE
2
LAYER
0
ENDTAB
0
ENDSEC
0
SECTION
2
ENTITIES
0
LINE
8
0
10
58
20
-158
11
58
21
-71.7992757
0
LINE
8
0
10
59.7892592
20
-69.8104096
11
133.2722544
21
-62.024132
0
LINE
8
0
10
133.7273056
20
-62.0279761
11
196.7443104
21
-69.7839151
0
LINE
8
0
10
198.5
20
-71.7689371
11
198.5
21
-126.9220747
0
LINE
8
0
10
199.912788
20
-128.8339277
11
224.5909193
21
-136.4136395
0
LINE
8
0
10
225.9164104
20
-138.9099295
11
215.9325331
21
-171.584437
0
LINE
8
0
10
214.01983
20
-173
11
167.8693153
21
-173
0
LINE
8
0
10
167.1550403
20
-172.8681037
11
133.8449597
21
-160.1318963
0
LINE
8
0
10
133.1306847
20
-160
11
60
21
-160
0
ARC
8
0
10
60
20
-71.7992757
40
2
50
96.0485076
51
180
0
ARC
8
0
10
133.4829952
20
-64.0129981
40
2
50
82.9834983
51
96.0485076
0
ARC
8
0
10
196.5
20
-71.7689371
40
2
50
0
51
82.9834983
0
ARC
8
0
10
200.5
20
-126.9220747
40
2
50
180
51
252.9260338
0
ARC
8
0
10
224.0037073
20
-138.3254925
40
2
50
343.0091791
51
72.9260338
0
ARC
8
0
10
214.01983
20
-171
40
2
50
270
51
343.0091791
0
ARC
8
0
10
167.8693153
20
-171
40
2
50
249.0754957
51
270
0
ARC
8
0
10
133.1306847
20
-162
40
2
50
69.0754957
51
90
0
ARC
8
0
10
60
20
-158
40
2
50
180
51
270
0
LINE
8
0
10
68
20
-157
11
82
21
-157
0
LINE
8
0
10
82
20
-157
11
82
21
-143
0
LINE
8
0
10
82
20
-143
11
68
21
-143
0
LINE
8
0
10
68
20
-143
11
68
21
-157
0
LINE
8
0
10
68
20
-140
11
82
21
-140
0
LINE
8
0
10
82
20
-140
11
82
21
-126
0
LINE
8
0
10
82
20
-126
11
68
21
-126
0
LINE
8
0
10
68
20
-126
11
68
21
-140
0
LINE
8
0
10
68
20
-123
11
82
21
-123
0
LINE
8
0
10
82
20
-123
11
82
21
-109
0
LINE
8
0
10
82
20
-109
11
68
21
-109
0
LINE
8
0
10
68
20
-109
11
68
21
-123
0
LINE
8
0
10
68
20
-106
11
82
21
-106
0
LINE
8
0
10
82
20
-106
11
82
21
-92
0
LINE
8
0
10
82
20
-92
11
68
21
-92
0
LINE
8
0
10
68
20
-92
11
68
21
-106
0
LINE
8
0
10
68
20
-89
11
82
21
-89
0
LINE
8
0
10
82
20
-89
11
82
21
-75
0
LINE
8
0
10
82
20
-75
11
68
21
-75
0
LINE
8
0
10
68
20
-75
11
68
21
-89
0
LINE
8
0
10
90.5
20
-155
11
104.5
21
-155
0
LINE
8
0
10
104.5
20
-155
11
104.5
21
-141
0
LINE
8
0
10
104.5
20
-141
11
90.5
21
-141
0
LINE
8
0
10
90.5
20
-141
11
90.5
21
-155
0
LINE
8
0
10
90.5
20
-138
11
104.5
21
-138
0
LINE
8
0
10
104.5
20
-138
11
104.5
21
-124
0
LINE
8
0
10
104.5
20
-124
11
90.5
21
-124
0
LINE
8
0
10
90.5
20
-124
11
90.5
21
-138
0
LINE
8
0
10
90.5
20
-121
11
104.5
21
-121
0
LINE
8
0
10
104.5
20
-121
11
104.5
21
-107
0
LINE
8
0
10
104.5
20
-107
11
90.5
21
-107
0
LINE
8
0
10
90.5
20
-107
11
90.5
21
-121
0
LINE
8
0
10
90.5
20
-104
11
104.5
21
-104
0
LINE
8
0
10
104.5
20
-104
11
104.5
21
-90
0
LINE
8
0
10
104.5
20
-90
11
90.5
21
-90
0
LINE
8
0
10
90.5
20
-90
11
90.5
21
-104
0
LINE
8
0
10
90.5
20
-87
11
104.5
21
-87
0
LINE
8
0
10
104.5
20
-87
11
104.5
21
-73
0
LINE
8
0
10
104.5
20
-73
11
90.5
21
-73
0
LINE
8
0
10
90.5
20
-73
11
90.5
21
-87
0
LINE
8
0
10
108.5
20
-151
11
122.5
21
-151
0
LINE
8
0
10
122.5
20
-151
11
122.5
21
-137
0
LINE
8
0
10
122.5
20
-137
11
108.5
21
-137
0
LINE
8
0
10
108.5
20
-137
11
108.5
21
-151
0
LINE
8
0
10
108.5
20
-134
11
122.5
21
-134
0
LINE
8
0
10
122.5
20
-134
11
122.5
21
-120
0
LINE
8
0
10
122.5
20
-120
11
108.5
21
-120
0
LINE
8
0
10
108.5
20
-120
11
108.5
21
-134
0
LINE
8
0
10
108.5
20
-117
11
122.5
21
-117
0
LINE
8
0
10
122.5
20
-117
11
122.5
21
-103
0
LINE
8
0
10
122.5
20
-103
11
108.5
21
-103
0
LINE
8
0
10
108.5
20
-103
11
108.5
21
-117
0
LINE
8
0
10
108.5
20
-100
11
122.5
21
-100
0
LINE
8
0
10
122.5
20
-100
11
122.5
21
-86
0
LINE
8
0
10
122.5
20
-86
11
108.5
21
-86
0
LINE
8
0
10
108.5
20
-86
11
108.5
21
-100
0
LINE
8
0
10
108.5
20
-83
11
122.5
21
-83
0
LINE
8
0
10
122.5
20
-83
11
122.5
21
-69
0
LINE
8
0
10
122.5
20
-69
11
108.5
21
-69
0
LINE
8
0
10
108.5
20
-69
11
108.5
21
-83
0
LINE
8
0
10
126.5
20
-149
11
140.5
21
-149
0
LINE
8
0
10
140.5
20
-149
11
140.5
21
-135
0
LINE
8
0
10
140.5
20
-135
11
126.5
21
-135
0
LINE
8
0
10
126.5
20
-135
11
126.5
21
-149
0
LINE
8
0
10
126.5
20
-132
11
140.5
21
-132
0
LINE
8
0
10
140.5
20
-132
11
140.5
21
-118
0
LINE
8
0
10
140.5
20
-118
11
126.5
21
-118
0
LINE
8
0
10
126.5
20
-118
11
126.5
21
-132
0
LINE
8
0
10
126.5
20
-115
11
140.5
21
-115
0
LINE
8
0
10
140.5
20
-115
11
140.5
21
-101
0
LINE
8
0
10
140.5
20
-101
11
126.5
21
-101
0
LINE
8
0
10
126.5
20
-101
11
126.5
21
-115
0
LINE
8
0
10
126.5
20
-98
11
140.5
21
-98
0
LINE
8
0
10
140.5
20
-98
11
140.5
21
-84
0
LINE
8
0
10
140.5
20
-84
11
126.5
21
-84
0
LINE
8
0
10
126.5
20
-84
11
126.5
21
-98
0
LINE
8
0
10
126.5
20
-81
11
140.5
21
-81
0
LINE
8
0
10
140.5
20
-81
11
140.5
21
-67
0
LINE
8
0
10
140.5
20
-67
11
126.5
21
-67
0
LINE
8
0
10
126.5
20
-67
11
126.5
21
-81
0
LINE
8
0
10
144.5
20
-134
11
158.5
21
-134
0
LINE
8
0
10
158.5
20
-134
11
158.5
21
-120
0
LINE
8
0
10
158.5
20
-120
11
144.5
21
-120
0
LINE
8
0
10
144.5
20
-120
11
144.5
21
-134
0
LINE
8
0
10
144.5
20
-117
11
158.5
21
-117
0
LINE
8
0
10
158.5
20
-117
11
158.5
21
-103
0
LINE
8
0
10
158.5
20
-103
11
144.5
21
-103
0
LINE
8
0
10
144.5
20
-103
11
144.5
21
-117
0
LINE
8
0
10
144.5
20
-100
11
158.5
21
-100
0
LINE
8
0
10
158.5
20
-100
11
158.5
21
-86
0
LINE
8
0
10
158.5
20
-86
11
144.5
21
-86
0
LINE
8
0
10
144.5
20
-86
11
144.5
21
-100
0
LINE
8
0
10
144.5
20
-83
11
158.5
21
-83
0
LINE
8
0
10
158.5
20
-83
11
158.5
21
-69
0
LINE
8
0
10
158.5
20
-69
11
144.5
21
-69
0
LINE
8
0
10
144.5
20
-69
11
144.5
21
-83
0
LINE
8
0
10
162.5
20
-136
11
176.5
21
-136
0
LINE
8
0
10
176.5
20
-136
11
176.5
21
-122
0
LINE
8
0
10
176.5
20
-122
11
162.5
21
-122
0
LINE
8
0
10
162.5
20
-122
11
162.5
21
-136
0
LINE
8
0
10
162.5
20
-119
11
176.5
21
-119
0
LINE
8
0
10
176.5
20
-119
11
176.5
21
-105
0
LINE
8
0
10
176.5
20
-105
11
162.5
21
-105
0
LINE
8
0
10
162.5
20
-105
11
162.5
21
-119
0
LINE
8
0
10
162.5
20
-102
11
176.5
21
-102
0
LINE
8
0
10
176.5
20
-102
11
176.5
21
-88
0
LINE
8
0
10
176.5
20
-88
11
162.5
21
-88
0
LINE
8
0
10
162.5
20
-88
11
162.5
21
-102
0
LINE
8
0
10
162.5
20
-85
11
176.5
21
-85
0
LINE
8
0
10
176.5
20
-85
11
176.5
21
-71
0
LINE
8
0
10
176.5
20
-71
11
162.5
21
-71
0
LINE
8
0
10
162.5
20
-71
11
162.5
21
-85
0
LINE
8
0
10
180.5
20
-140
11
194.5
21
-140
0
LINE
8
0
10
194.5
20
-140
11
194.5
21
-126
0
LINE
8
0
10
194.5
20
-126
11
180.5
21
-126
0
LINE
8
0
10
180.5
20
-126
11
180.5
21
-140
0
LINE
8
0
10
180.5
20
-123
11
194.5
21
-123
0
LINE
8
0
10
194.5
20
-123
11
194.5
21
-109
0
LINE
8
0
10
194.5
20
-109
11
180.5
21
-109
0
LINE
8
0
10
180.5
20
-109
11
180.5
21
-123
0
LINE
8
0
10
180.5
20
-106
11
194.5
21
-106
0
LINE
8
0
10
194.5
20
-106
11
194.5
21
-92
0
LINE
8
0
10
194.5
20
-92
11
180.5
21
-92
0
LINE
8
0
10
180.5
20
-92
11
180.5
21
-106
0
LINE
8
0
10
180.5
20
-89
11
194.5
21
-89
0
LINE
8
0
10
194.5
20
-89
11
194.5
21
-75
0
LINE
8
0
10
194.5
20
-75
11
180.5
21
-75
0
LINE
8
0
10
180.5
20
-75
11
180.5
21
-89
0
LINE
8
0
10
152.3908085
20
-153.978117
11
166.178117
21
-156.4091915
0
LINE
8
0
10
166.178117
20
-156.4091915
11
168.6091915
21
-142.621883
0
LINE
8
0
10
168.6091915
20
-142.621883
11
154.821883
21
-140.1908085
0
LINE
8
0
10
154.821883
20
-140.1908085
11
152.3908085
21
-153.978117
0
ENDSEC
0
EOF